<?xml version="1.0" encoding="UTF-8" standalone="no"?>
<svg
   width="32"
   height="32"
   viewBox="0 0 32 32"
   fill="none"
   version="1.1"
   id="svg3"
   sodipodi:docname="export.svg"
   inkscape:version="1.4 (e7c3feb100, 2024-10-09)"
   xmlns:inkscape="http://www.inkscape.org/namespaces/inkscape"
   xmlns:sodipodi="http://sodipodi.sourceforge.net/DTD/sodipodi-0.dtd"
   xmlns="http://www.w3.org/2000/svg"
   xmlns:svg="http://www.w3.org/2000/svg">
  <defs
     id="defs3" />
  <sodipodi:namedview
     id="namedview3"
     pagecolor="#ffffff"
     bordercolor="#000000"
     borderopacity="0.25"
     inkscape:showpageshadow="2"
     inkscape:pageopacity="0.0"
     inkscape:pagecheckerboard="0"
     inkscape:deskcolor="#d1d1d1"
     inkscape:zoom="6.9"
     inkscape:cx="14.782609"
     inkscape:cy="14.637681"
     inkscape:window-width="1239"
     inkscape:window-height="765"
     inkscape:window-x="50"
     inkscape:window-y="27"
     inkscape:window-maximized="0"
     inkscape:current-layer="svg3" />
  <path
     d="m 3.7875573,20.314313 v 0.254426 6.869499 c 0,1.124104 0.911302,2.035407 2.035407,2.035407 H 26.177035 c 1.124105,0 2.035408,-0.911303 2.035408,-2.035407 v -6.869499 -0.254426"
     stroke="#C2CCDE"
     stroke-width="3.05311"
     stroke-linecap="round"
     stroke-linejoin="round"
     id="path1"
     style="stroke:#00ff00;stroke-opacity:1" />
  <path
     fill-rule="evenodd"
     clip-rule="evenodd"
     d="m 20.070814,13.190235 h 4.275016 c 1.597184,0 2.381987,-1.944424 1.232236,-3.053111 L 17.933892,2.7659487 c -1.034853,-0.99791 -2.673865,-0.99791 -3.708716,0 L 6.5809497,10.137124 c -1.1496995,1.108636 -0.3648978,3.053111 1.2322357,3.053111 h 4.1160006 v 6.106222 3.05311 c 0,0.562078 0.455677,1.017704 1.017703,1.017704 h 6.106222 c 0.562077,0 1.017703,-0.455626 1.017703,-1.017704 v -3.05311 z"
     fill="#C2CCDE"
     id="path2"
     style="fill:#00ff0e;fill-opacity:1;stroke-width:0.508852" />
  <path
     d="m 20.070814,13.190235 v -1.017704 c -0.562027,0 -1.017703,0.455677 -1.017703,1.017704 z M 25.578066,10.137124 26.284505,9.40453 Z M 17.933892,2.7659487 18.64033,2.0333544 v 0 z m -3.708716,0 -0.706439,-0.7325943 v 0 z M 6.5809497,10.137124 5.8745105,9.40453 v 0 z m 5.3482363,3.053111 h 1.017703 c 0,-0.562027 -0.455625,-1.017704 -1.017703,-1.017704 z m 0,6.106222 h 1.017703 z M 24.34583,12.172531 h -4.275016 v 2.035408 h 4.275016 z m 0.525848,-1.302813 c 0.490584,0.47308 0.155709,1.302813 -0.525848,1.302813 v 2.035408 c 2.512812,0 3.74749,-3.059166 1.938675,-4.8034091 z M 17.227452,3.4985422 24.871678,10.869718 26.284505,9.40453 18.64033,2.0333544 Z m -2.295888,0 c 0.640644,-0.6177463 1.655244,-0.6177463 2.295888,0 L 18.64033,2.0333544 c -1.42911,-1.3780728 -3.692483,-1.3780728 -5.121593,0 z M 7.2873889,10.869718 14.931564,3.4985422 13.518737,2.0333544 5.8745105,9.40453 Z m 0.5257964,1.302813 c -0.6815057,0 -1.0164318,-0.829733 -0.5257964,-1.302813 L 5.8745105,9.40453 c -1.8088151,1.744243 -0.5740866,4.803409 1.9386748,4.803409 z m 4.1160007,0 H 7.8131853 v 2.035408 h 4.1160007 z m 1.017703,7.123926 v -6.106222 h -2.035407 v 6.106222 z m 0,3.05311 v -3.05311 h -2.035407 v 3.05311 z m 0,0 h -2.035407 c 0,1.124156 0.911303,2.035407 2.035407,2.035407 z m 6.106222,0 h -6.106222 v 2.035407 h 6.106222 z m 0,0 v 2.035407 c 1.124155,0 2.035407,-0.911251 2.035407,-2.035407 z m 0,-3.05311 v 3.05311 h 2.035407 v -3.05311 z m 0,-6.106222 v 6.106222 h 2.035407 v -6.106222 z"
     fill="#C2CCDE"
     id="path3"
     style="fill:#00ff00;fill-opacity:1;stroke-width:0.508852" />
</svg>
