<?xml version="1.0" encoding="UTF-8" standalone="no"?>
<svg
   width="32"
   height="32"
   viewBox="0 0 32 32"
   fill="none"
   version="1.1"
   id="svg3"
   sodipodi:docname="import.svg"
   inkscape:version="1.4 (e7c3feb100, 2024-10-09)"
   xmlns:inkscape="http://www.inkscape.org/namespaces/inkscape"
   xmlns:sodipodi="http://sodipodi.sourceforge.net/DTD/sodipodi-0.dtd"
   xmlns="http://www.w3.org/2000/svg"
   xmlns:svg="http://www.w3.org/2000/svg">
  <defs
     id="defs3" />
  <sodipodi:namedview
     id="namedview3"
     pagecolor="#ffffff"
     bordercolor="#000000"
     borderopacity="0.25"
     inkscape:showpageshadow="2"
     inkscape:pageopacity="0.0"
     inkscape:pagecheckerboard="0"
     inkscape:deskcolor="#d1d1d1"
     inkscape:zoom="6.9"
     inkscape:cx="15.289855"
     inkscape:cy="18.550725"
     inkscape:window-width="1239"
     inkscape:window-height="765"
     inkscape:window-x="0"
     inkscape:window-y="27"
     inkscape:window-maximized="0"
     inkscape:current-layer="svg3" />
  <path
     d="m 3.3684427,19.947282 v 0.263158 7.105251 c 0,1.162682 0.9425778,2.10526 2.1052599,2.10526 H 26.526298 c 1.162682,0 2.105259,-0.942578 2.105259,-2.10526 V 20.21044 19.947282"
     stroke="#c2ccde"
     stroke-width="3.15789"
     stroke-linecap="round"
     stroke-linejoin="round"
     id="path1"
     style="stroke:#ff0000;stroke-opacity:1" />
  <path
     fill-rule="evenodd"
     clip-rule="evenodd"
     d="m 20.128265,12.579032 h 4.421729 c 1.651998,0 2.463734,2.011155 1.274524,3.15789 l -7.906512,7.624144 c -1.070366,1.032156 -2.765627,1.032156 -3.835993,0 L 6.1754468,15.736922 c -1.189156,-1.146683 -0.3774202,-3.15789 1.2745249,-3.15789 H 11.707227 V 6.263253 3.1053641 c 0,-0.5813677 0.471315,-1.0526299 1.05263,-1.0526299 h 6.315778 c 0.581368,0 1.05263,0.4712622 1.05263,1.0526299 V 6.263253 Z"
     fill="#c2ccde"
     id="path2"
     style="fill:#ff0000;fill-opacity:1;stroke-width:0.526315" />
  <path
     d="m 20.128276,12.579032 v 1.05263 c -0.581314,0 -1.05263,-0.471315 -1.05263,-1.05263 z m 5.696254,3.15789 0.730683,0.757735 z m -7.906513,7.624144 0.730683,0.757735 v 0 z m -3.835993,0 -0.730683,0.757735 v 0 z m -7.9065655,-7.624144 -0.730683,0.757735 v 0 z m 5.5317805,-3.15789 h 1.05263 c 0,0.581315 -0.471263,1.05263 -1.05263,1.05263 z m 0,-6.315779 h 1.05263 z m 12.842767,7.368409 h -4.42173 v -2.10526 h 4.42173 z m 0.543894,1.347524 c 0.50742,-0.489315 0.161052,-1.347524 -0.543894,-1.347524 v -2.10526 c 2.599048,0 3.876098,3.164152 2.005207,4.968255 z m -7.906566,7.624145 7.906566,-7.624145 1.461313,1.515471 -7.906513,7.624144 z m -2.37468,0 c 0.662631,0.638946 1.71205,0.638946 2.37468,0 l 1.461366,1.51547 c -1.478155,1.425367 -3.819204,1.425367 -5.297359,0 z m -7.9065124,-7.624145 7.9065124,7.624145 -1.461313,1.51547 -7.9065655,-7.624144 z m 0.5438418,-1.347524 c -0.7048936,0 -1.0513146,0.858209 -0.5438418,1.347524 L 5.4447755,16.494657 C 3.5738848,14.690554 4.8509878,11.526402 7.4499834,11.526402 Z m 4.2572556,0 H 7.4499834 v -2.10526 h 4.2572556 z m 1.05263,-7.368409 v 6.315779 h -2.10526 V 6.263253 Z m 0,-3.1578889 V 6.263253 h -2.10526 V 3.1053641 Z m 0,0 h -2.10526 c 0,-1.1627355 0.942577,-2.1052599 2.10526,-2.1052599 z m 6.315777,0 H 12.759869 V 1.0001042 h 6.315777 z m 0,0 V 1.0001042 c 1.162736,0 2.10526,0.9425244 2.10526,2.1052599 z m 0,3.1578889 V 3.1053641 h 2.10526 V 6.263253 Z m 0,6.315779 V 6.263253 h 2.10526 v 6.315779 z"
     fill="#c2ccde"
     id="path3"
     style="fill:#ff0000;fill-opacity:1;stroke-width:0.526315" />
</svg>
