<?xml version="1.0" encoding="UTF-8" standalone="no"?>
<svg
   width="32"
   height="32.000092"
   viewBox="0 0 32 32.000092"
   fill="none"
   version="1.1"
   id="svg5"
   sodipodi:docname="plug.svg"
   inkscape:version="1.4 (e7c3feb100, 2024-10-09)"
   xmlns:inkscape="http://www.inkscape.org/namespaces/inkscape"
   xmlns:sodipodi="http://sodipodi.sourceforge.net/DTD/sodipodi-0.dtd"
   xmlns="http://www.w3.org/2000/svg"
   xmlns:svg="http://www.w3.org/2000/svg">
  <defs
     id="defs5" />
  <sodipodi:namedview
     id="namedview5"
     pagecolor="#ffffff"
     bordercolor="#000000"
     borderopacity="0.25"
     inkscape:showpageshadow="2"
     inkscape:pageopacity="0.0"
     inkscape:pagecheckerboard="0"
     inkscape:deskcolor="#d1d1d1"
     inkscape:zoom="6.9"
     inkscape:cx="13.695652"
     inkscape:cy="16.376812"
     inkscape:window-width="1239"
     inkscape:window-height="765"
     inkscape:window-x="0"
     inkscape:window-y="27"
     inkscape:window-maximized="0"
     inkscape:current-layer="svg5" />
  <path
     fill-rule="evenodd"
     clip-rule="evenodd"
     d="m 10.230682,1.2882841 c 0.955918,0 1.730795,0.7748767 1.730795,1.7307954 v 4.6154546 c 0,0.6372791 -0.516584,1.1538629 -1.153863,1.1538629 H 9.65375 c -0.6372791,0 -1.1538639,-0.5165838 -1.1538639,-1.1538629 V 3.0190795 c 0,-0.9559187 0.7748777,-1.7307954 1.7307959,-1.7307954 z M 22.34625,8.788397 c 0.637279,0 1.153864,-0.5165838 1.153864,-1.1538629 V 3.0190795 c 0,-0.9559187 -0.774878,-1.7307954 -1.730795,-1.7307954 -0.955919,0 -1.730796,0.7748767 -1.730796,1.7307954 v 4.6154546 c 0,0.6372791 0.516584,1.1538629 1.153863,1.1538629 z"
     fill="#C2CCDE"
     id="path1"
     style="fill:#0000ff;fill-opacity:1;stroke-width:0.576931" />
  <path
     d="m 12.249944,3.0190795 c 0,-1.1152094 -0.904053,-2.01926115 -2.019262,-2.01926115 V 1.5767498 c 0.796569,0 1.442329,0.6457599 1.442329,1.4423297 z m 0,4.6154546 V 3.0190795 h -0.576933 v 4.6154546 z m -1.44233,0.8653972 H 9.65375 v 0.5769324 h 1.153864 z M 8.2114204,3.0190795 V 7.6345341 H 8.7883518 V 3.0190795 Z M 10.230682,0.99981835 c -1.1152089,0 -2.0192616,0.90405175 -2.0192616,2.01926115 h 0.5769314 c 0,-0.7965698 0.6457599,-1.4423297 1.4423302,-1.4423297 z M 23.78858,7.6345341 V 3.0190795 h -0.576932 v 4.6154546 z m 0,-4.6154546 c 0,-1.1152094 -0.904053,-2.01926115 -2.019261,-2.01926115 V 1.5767498 c 0.796569,0 1.442329,0.6457599 1.442329,1.4423297 z M 21.769319,0.99981835 c -1.11521,0 -2.019263,0.90405175 -2.019263,2.01926115 h 0.576933 c 0,-0.7965698 0.64576,-1.4423297 1.44233,-1.4423297 z M 19.750056,3.0190795 v 4.6154546 h 0.576933 V 3.0190795 Z M 22.34625,8.4999313 H 21.192386 V 9.0768637 H 22.34625 Z M 19.750056,7.6345341 c 0,0.7965698 0.64576,1.4423296 1.44233,1.4423296 V 8.4999313 c -0.47793,0 -0.865397,-0.3874669 -0.865397,-0.8653972 z m 3.461592,0 c 0,0.4779303 -0.387468,0.8653972 -0.865398,0.8653972 v 0.5769324 c 0.79657,0 1.44233,-0.6457598 1.44233,-1.4423296 z M 9.65375,8.4999313 c -0.4779303,0 -0.8653982,-0.3874669 -0.8653982,-0.8653972 H 8.2114204 c 0,0.7965698 0.6457598,1.4423296 1.4423296,1.4423296 z m 2.019261,-0.8653972 c 0,0.4779303 -0.387467,0.8653972 -0.865397,0.8653972 v 0.5769324 c 0.79657,0 1.44233,-0.6457598 1.44233,-1.4423296 z"
     fill="#C2CCDE"
     id="path2"
     style="fill:#0000ff;fill-opacity:1;stroke-width:0.576931" />
  <path
     d="m 16,23.788625 v 5.769318"
     stroke="#C2CCDE"
     stroke-width="2.88466"
     stroke-linecap="round"
     stroke-linejoin="round"
     id="path3"
     style="fill:#0000ff;fill-opacity:1;stroke:#0000ff;stroke-opacity:1" />
  <path
     fill-rule="evenodd"
     clip-rule="evenodd"
     d="m 26.581449,13.403851 c 0.528642,0 0.957187,-0.428544 0.957187,-0.957187 V 9.9422609 c 0,-0.6372791 -0.516585,-1.1538639 -1.153863,-1.1538639 H 24.426609 7.5733913 5.6152268 c -0.6372781,0 -1.1538629,0.5165848 -1.1538629,1.1538639 v 2.5044031 c 0,0.528643 0.428545,0.957187 0.9571871,0.957187 0.5286431,0 0.9521105,0.4297 1.0068039,0.955515 0.091389,0.878206 0.309062,1.74643 0.6530865,2.576982 l 0.1152136,0.278138 c 0.9368797,2.261804 2.7339065,4.058831 4.99571,4.99571 l 0.278139,0.115214 c 2.261804,0.93688 4.803188,0.93688 7.064992,0 l 0.278139,-0.115214 c 2.261804,-0.936879 4.05883,-2.733906 4.99571,-4.99571 l 0.115214,-0.278138 c 0.344024,-0.830552 0.5617,-1.698776 0.653086,-2.576982 0.05469,-0.525815 0.478104,-0.955515 1.006804,-0.955515 z"
     fill="#C2CCDE"
     id="path4"
     style="fill:#0000ff;fill-opacity:1;stroke-width:0.576931" />
  <path
     d="m 7.0784414,16.936348 -1.0660547,0.441583 v 0 z m 0.1152136,0.278138 1.0659966,-0.441583 z m 4.99571,4.99571 0.441584,-1.065996 v 0 z m 0.278139,0.115214 -0.441583,1.066055 v 0 z m 7.064992,0 -0.441526,-1.066055 v 0 z m 0.278139,-0.115214 0.441525,1.066055 h 5.9e-5 z m 4.99571,-4.99571 1.066055,0.441584 v -5.8e-5 z m 0.115214,-0.278138 -1.066055,-0.441527 v 0 z m 0.653086,-2.576982 -1.14769,-0.119425 z m -19.1492901,0 -1.1476903,0.119368 z M 26.384773,9.9422609 V 12.446664 H 28.6925 V 9.9422609 Z m -1.958164,0 h 1.958164 V 7.6345341 h -1.958164 z m -16.8532177,0 H 24.426609 V 7.6345341 H 7.5733913 Z m -1.9581645,0 H 7.5733913 V 7.6345341 H 5.6152268 Z m 0,2.5044031 V 9.9422609 H 3.3075 v 2.5044031 z m 2.5292693,4.048157 C 7.8434537,15.768003 7.6529504,15.008357 7.5730453,14.239941 l -2.2953807,0.238793 c 0.1028094,0.988053 0.3477164,1.964856 0.7347221,2.899197 z m 0.1151555,0.278082 -0.1151555,-0.278082 -2.1321094,0.88311 0.1152136,0.278139 z M 12.630949,21.1442 C 10.651842,20.32438 9.0794145,18.75201 8.2596516,16.772903 L 6.1276003,17.65607 c 1.0539965,2.544558 3.0756238,4.566185 5.6201807,5.620181 z m 0.278081,0.115155 -0.278081,-0.115155 -0.883168,2.132051 0.27814,0.115214 z m 6.18194,0 c -1.979107,0.81982 -4.202833,0.81982 -6.18194,0 l -0.883109,2.13211 c 2.544558,1.053939 5.4036,1.053939 7.948159,0 z m 0.278081,-0.115155 -0.278081,0.115155 0.88311,2.13211 0.27808,-0.115214 z m 4.371297,-4.371297 c -0.81982,1.979107 -2.39219,3.551477 -4.371297,4.371297 l 0.883168,2.132051 c 2.544557,-1.053996 4.566184,-3.075623 5.620181,-5.620181 z m 0.115156,-0.278082 -0.115156,0.278082 2.132052,0.883109 0.115213,-0.278081 z m 0.571451,-2.25488 c -0.0799,0.768416 -0.270409,1.528062 -0.571451,2.25488 l 2.132109,0.88311 c 0.386948,-0.934283 0.631913,-1.911144 0.734722,-2.899197 z m 2.29538,0.238793 c -8.65e-4,0.0081 -0.0043,0.02002 -0.01927,0.03456 -0.0086,0.0083 -0.02331,0.01956 -0.04552,0.02896 -0.02331,0.0098 -0.05007,0.01546 -0.0761,0.01546 v -2.307727 c -1.192461,0 -2.046435,0.951591 -2.154495,1.989953 z M 5.6152268,7.6345341 c -1.2745,0 -2.3077268,1.0332268 -2.3077268,2.3077268 h 2.3077268 v 0 z M 5.418551,14.557715 c -0.026072,0 -0.052791,-0.0056 -0.076098,-0.01546 -0.02221,-0.0094 -0.036919,-0.02065 -0.045516,-0.02896 -0.015,-0.01454 -0.018403,-0.02649 -0.019266,-0.03456 L 7.5730519,14.239947 C 7.4649924,13.201585 6.6110179,12.249994 5.4185576,12.249994 Z m 20.966222,-2.111051 c 0,-0.108636 0.08804,-0.196675 0.196676,-0.196675 v 2.307726 c 1.165864,0 2.111051,-0.945187 2.111051,-2.111051 z m -23.077273,0 c 0,1.165922 0.9451869,2.111051 2.111051,2.111051 v -2.307726 c 0.108636,0 0.1966758,0.08804 0.1966758,0.196675 z m 25.385,-2.5044031 c 0,-1.2745 -1.033227,-2.3077268 -2.307727,-2.3077268 v 2.3077268 0 z"
     fill="#C2CCDE"
     id="path5"
     style="fill:#0000ff;fill-opacity:1;stroke-width:0.576931" />
</svg>
