<?xml version="1.0" encoding="UTF-8" standalone="no"?>
<svg
   width="32.000004"
   height="32"
   viewBox="0 0 32.000004 32"
   fill="none"
   version="1.1"
   id="svg3"
   sodipodi:docname="sun.svg"
   inkscape:version="1.4 (e7c3feb100, 2024-10-09)"
   xmlns:inkscape="http://www.inkscape.org/namespaces/inkscape"
   xmlns:sodipodi="http://sodipodi.sourceforge.net/DTD/sodipodi-0.dtd"
   xmlns="http://www.w3.org/2000/svg"
   xmlns:svg="http://www.w3.org/2000/svg">
  <defs
     id="defs3" />
  <sodipodi:namedview
     id="namedview3"
     pagecolor="#ffffff"
     bordercolor="#000000"
     borderopacity="0.25"
     inkscape:showpageshadow="2"
     inkscape:pageopacity="0.0"
     inkscape:pagecheckerboard="0"
     inkscape:deskcolor="#d1d1d1"
     inkscape:zoom="6.9"
     inkscape:cx="15.869565"
     inkscape:cy="15.942029"
     inkscape:window-width="1239"
     inkscape:window-height="763"
     inkscape:window-x="70"
     inkscape:window-y="27"
     inkscape:window-maximized="0"
     inkscape:current-layer="svg3" />
  <path
     fill-rule="evenodd"
     clip-rule="evenodd"
     d="M 9.3696149,7.2659609 7.5808979,4.9292771 9.3543552,7.276593 c 0.00506,-0.00356 0.010134,-0.00712 0.015263,-0.010631 z m -4.1071251,5.3914211 -2.8848437,-0.886 2.879004,0.903158 c 0.00187,-0.0057 0.00384,-0.01147 0.00581,-0.01716 z m -0.00581,6.668103 -2.879004,0.903158 2.8848437,-0.886 c -0.00197,-0.0057 -0.00394,-0.01142 -0.00581,-0.01716 z m 4.0977051,5.397946 -1.7734573,2.347316 1.7887169,-2.336683 c -0.00516,-0.0036 -0.010191,-0.007 -0.015262,-0.01063 z m 6.6361961,2.066001 0.0095,2.894788 0.0094,-2.894788 c -0.0063,5.2e-5 -0.01262,5.2e-5 -0.0189,0 z m 6.639999,-2.055157 1.788552,2.336472 -1.773237,-2.347105 c -0.0051,0.0036 -0.01019,0.0071 -0.01532,0.01063 z m 4.107456,-5.391474 2.884347,0.885842 -2.878508,-0.902999 c -0.002,0.0057 -0.0038,0.01142 -0.0058,0.01716 z m 0.0058,-6.66842 2.878508,-0.903 -2.884347,0.885842 c 0.002,0.0057 0.0039,0.01142 0.0058,0.01716 z M 22.645865,7.2763821 24.419102,4.9292771 22.63055,7.2657509 c 0.0052,0.00347 0.01025,0.00703 0.01532,0.010631 z m -6.636417,-2.0657894 -0.0094,-2.8947887 -0.0095,2.8947887 c 0.0063,-5.25e-5 0.01262,-5.25e-5 0.0189,0 z"
     fill="#c2ccde"
     id="path1"
     style="stroke-width:0.538467" />
  <path
     d="m 9.3696149,7.2659609 0.8020561,1.0696845 c 0.298863,-0.2045268 0.49972,-0.5147371 0.557896,-0.8615268 0.05812,-0.3467362 -0.03124,-0.701368 -0.248236,-0.9848417 z M 7.5808979,4.9292771 8.6926143,4.1525406 C 8.2445672,3.5672773 7.3853832,3.4385407 6.7714052,3.8647507 6.1573718,4.2909616 6.0199775,5.1113827 6.4641677,5.6993301 Z M 9.3543552,7.276593 8.2376259,8.0466976 C 8.4528075,8.3315401 8.7782793,8.5223298 9.1415427,8.5765922 9.5048061,8.6308547 9.875727,8.5441172 10.171671,8.3356454 Z m -4.0918654,5.380789 1.3069001,0.415105 C 6.6854093,12.739171 6.657093,12.375434 6.4907805,12.062171 6.3244634,11.748961 6.0339744,11.512225 5.6839869,11.40475 Z m -2.8848437,-0.886 0.4214943,-1.252684 C 2.0765793,10.296803 1.302345,10.675171 1.0677712,11.36475 c -0.2345184,0.689632 0.1591003,1.430527 0.8801737,1.656737 z m 2.879004,0.903158 -0.4297021,1.250158 c 0.3493255,0.109578 0.7299983,0.08116 1.0572879,-0.0789 0.3272897,-0.160053 0.5739825,-0.438474 0.685154,-0.773316 z m 0,6.650945 1.3127398,-0.397894 C 6.4582184,18.592749 6.2115256,18.314329 5.8842359,18.154223 5.5570007,17.99417 5.1762735,17.965749 4.826948,18.075333 Z m -2.879004,0.903158 -0.4297012,-1.250105 c -0.7210734,0.22621 -1.1146921,0.967105 -0.8801737,1.656737 0.2345738,0.689579 1.0088081,1.067947 1.7313692,0.846052 z m 2.8848437,-0.886 0.4214934,1.252632 c 0.3499874,-0.107475 0.6404764,-0.344159 0.8067936,-0.657421 0.1663162,-0.313263 0.1946325,-0.677 0.078609,-1.010316 z m 4.0918654,5.380788 0.8174258,-1.058999 C 9.8758367,23.455959 9.5049158,23.36917 9.1415971,23.423432 8.7782793,23.477695 8.4528075,23.668485 8.2376259,23.953327 Z M 7.5808979,27.070747 6.4641677,26.300694 c -0.4441902,0.587948 -0.3067959,1.408369 0.3072375,1.83458 0.613978,0.42621 1.473162,0.297473 1.9212091,-0.28779 z m 1.788717,-2.336683 1.1117161,0.776684 c 0.217,-0.283474 0.306355,-0.638158 0.248181,-0.984948 -0.05817,-0.346789 -0.259089,-0.657 -0.557951,-0.861526 z m 6.6209371,2.055368 0.0096,-1.315736 c -0.367671,-0.0024 -0.721129,0.135632 -0.981595,0.383526 -0.26052,0.247947 -0.406454,0.585052 -0.405297,0.936316 z m 0.0095,2.894788 -1.37725,0.0041 c 0.0024,0.725086 0.618273,1.311665 1.377247,1.311665 0.758921,0 1.374827,-0.586579 1.377196,-1.311683 z m 0.0094,-2.894788 1.37725,0.0041 C 17.387802,26.442374 17.24198,26.105268 16.98157,25.857374 16.721215,25.60948 16.367868,25.471322 16.000251,25.47369 Z m 6.621102,-2.055157 -0.801889,-1.069736 c -0.298919,0.204473 -0.499832,0.514683 -0.558008,0.861525 -0.05817,0.34679 0.03118,0.701422 0.248236,0.984948 z m 1.788552,2.336472 -1.111716,0.776737 c 0.448047,0.585264 1.307231,0.714 1.921209,0.287791 0.614033,-0.426211 0.751428,-1.246633 0.307237,-1.83458 z M 22.645869,24.723642 23.762598,23.95359 C 23.547417,23.6688 23.222,23.478011 22.858792,23.423695 c -0.363208,-0.05432 -0.734074,0.03237 -1.030018,0.240737 z m 4.092141,-5.380841 -1.3069,-0.415158 c -0.116019,0.333264 -0.0877,0.697053 0.07861,1.010316 0.166262,0.313263 0.456751,0.55 0.806794,0.657473 z m 2.884348,0.885842 -0.421494,1.252684 c 0.722561,0.221895 1.496795,-0.156473 1.731369,-0.846052 0.234518,-0.689632 -0.1591,-1.430527 -0.880174,-1.656737 z m -2.878508,-0.902999 0.429702,-1.250158 c -0.349326,-0.10958 -0.729998,-0.08116 -1.057233,0.07889 -0.327289,0.160053 -0.573982,0.438421 -0.685209,0.773211 z m 0,-6.651262 -1.31274,0.398052 c 0.111227,0.33479 0.35792,0.613158 0.685209,0.773211 0.327235,0.160053 0.707907,0.188474 1.057233,0.07889 z m 2.878508,-0.903 0.429701,1.250105 c 0.721074,-0.22621 1.114692,-0.967105 0.880174,-1.656737 -0.234574,-0.689579 -1.008808,-1.067947 -1.731369,-0.846052 z m -2.884348,0.885842 -0.421493,-1.252631 c -0.349988,0.107473 -0.640477,0.34421 -0.806794,0.65742 -0.166316,0.313263 -0.194632,0.676999 -0.07861,1.010315 z M 22.645869,7.2763821 21.828885,8.3356454 c 0.295943,0.2083153 0.666754,0.2949993 1.029963,0.2406843 0.363208,-0.054319 0.688569,-0.2451055 0.90375,-0.5298955 z m 1.773237,-2.347105 1.11673,0.770053 C 25.980027,5.1113827 25.842632,4.2909616 25.228599,3.8647507 24.614621,3.4385407 23.755437,3.5672773 23.30739,4.1525406 Z M 22.630554,7.2657509 21.518893,6.4890135 c -0.217055,0.2835262 -0.30641,0.6382105 -0.248236,0.9850526 0.05823,0.3468422 0.259199,0.6570525 0.558173,0.8615268 z m -6.621102,-2.0551582 -0.0092,1.315737 c 0.367616,0.00234 0.720963,-0.1357894 0.981318,-0.383684 0.26041,-0.2478947 0.406289,-0.5849999 0.405132,-0.9361583 z m -0.0094,-2.8947887 1.377196,-0.00413 c -0.0024,-0.7250808 -0.6183,-1.3116595 -1.377221,-1.3116595 -0.758974,0 -1.374881,0.5865787 -1.37725,1.3116842 z m -0.0095,2.8947887 -1.37725,-0.00413 c -0.0011,0.3512634 0.144777,0.6884212 0.405297,0.9363158 0.260521,0.2478947 0.613978,0.3859996 0.981649,0.3835265 z M 10.481331,6.4892769 8.6926143,4.1525406 6.4692368,5.7059611 8.2579538,8.0426973 Z M 6.4641677,5.6993301 8.2376259,8.0466976 10.471084,6.50654 8.6976824,4.1591716 Z m 3.7075033,2.6363153 v 0 L 8.5675593,6.1963297 c -0.010247,0.00703 -0.020437,0.014109 -0.030572,0.021262 z M 5.6839832,11.40475 2.7991404,10.518698 1.9561527,13.024013 4.8409964,13.910014 Z m -3.7360383,1.616737 2.8790031,0.903211 0.8593489,-2.500264 -2.879003,-0.90321 z m 4.621445,0.051 c 0,0 0,0 0,0 L 3.9555896,12.242276 c -0.00403,0.01142 -0.00787,0.02289 -0.011681,0.03431 z m -1.7424419,5.002841 -2.8790031,0.903211 0.859349,2.500263 2.879003,-0.90321 z m -2.0278076,3.406 2.8848428,-0.886053 -0.8429868,-2.505264 -2.8848437,0.886001 z m 3.7702495,-2.55379 v 5.4e-5 L 3.943855,19.723327 c 0.00384,0.01158 0.00778,0.02305 0.011738,0.03442 z m 1.668236,5.025789 -1.7734582,2.347368 2.2335147,1.540159 1.7734016,-2.34737 z m 0.4549884,3.894157 1.7887167,-2.336735 -2.2233772,-1.553421 -1.788717,2.336736 z m 1.4789467,-4.18321 2.2e-4,1.58e-4 -1.6348517,2.117947 c 0.010078,0.0071 0.020325,0.01426 0.030797,0.02142 z m 4.441741,3.129264 0.0095,2.894789 2.754446,-0.0082 -0.0094,-2.894789 z m 2.763921,2.894789 0.0095,-2.894789 -2.7545,-0.0083 -0.0094,2.894789 z m -1.376975,-4.214631 h -5.5e-5 l -0.01928,2.631526 c 0.01272,5.3e-5 0.02528,5.3e-5 0.03773,0 z m 5.518641,0.03731 1.788497,2.336473 2.223378,-1.55342 -1.788497,-2.336474 z m 4.016944,0.789684 -1.773238,-2.347104 -2.233459,1.540157 1.773237,2.347105 z m -3.707062,-2.636263 -1.1e-4,1.06e-4 1.60378,2.139473 c 0.01,-0.0068 0.02011,-0.01384 0.03047,-0.0211 z m 4.487742,-3.069 2.884347,0.885895 0.842988,-2.505315 -2.884348,-0.885842 z m 3.735542,-1.616894 -2.878507,-0.903052 -0.859404,2.500263 2.878562,0.903052 z m -4.620949,-0.05094 v 5.2e-5 l 2.613801,0.830316 c 0.0038,-0.01105 0.0078,-0.02253 0.01168,-0.03431 z m 1.742442,-5.003053 2.878507,-0.903052 -0.859349,-2.500263 -2.878562,0.903053 z m 2.027312,-3.405842 -2.884347,0.885895 0.842987,2.505262 2.884348,-0.885842 z m -3.769754,2.553631 v 1.05e-4 l 2.62548,-0.796052 c -0.0038,-0.01158 -0.0078,-0.023 -0.01168,-0.03427 z m -1.668511,-5.0258948 1.773238,-2.3471041 -2.23346,-1.5401585 -1.773292,2.347105 z m -0.455209,-3.8938936 -1.788497,2.3364729 2.223378,1.5534738 1.788497,-2.3365262 z m -1.47856,4.1830523 5.5e-5,5.25e-5 1.63397,-2.1185791 c -0.01014,-0.00713 -0.02028,-0.014156 -0.03057,-0.021159 z m -4.442128,-3.1291055 -0.0095,-2.8947887 -2.754446,0.00825 0.0094,2.8947887 z m -2.763921,-2.8947887 -0.0095,2.8947887 2.7545,0.00825 0.0094,-2.8947887 z m 1.377471,4.214631 v 0 l 0.0184,-2.6315265 c -0.01262,-5.25e-5 -0.02523,-5.25e-5 -0.03779,0 z"
     fill="#C2CCDE"
     id="path2"
     style="fill:#ffa500;fill-opacity:1;stroke:none;stroke-width:0.538467;stroke-opacity:1" />
  <path
     d="m 14.057113,10.287329 c 1.262773,-0.3919997 2.622946,-0.3919997 3.885719,0 1.262773,0.392001 2.363196,1.155842 3.143656,2.182053 0.780405,1.026211 1.200742,2.262157 1.200742,3.53063 0,1.268475 -0.420337,2.50442 -1.200742,3.530631 -0.78046,1.026211 -1.880883,1.790052 -3.143656,2.182053 -1.262773,0.391999 -2.622946,0.391999 -3.885719,0 -1.262773,-0.392001 -2.363196,-1.155842 -3.143655,-2.182053 -0.780406,-1.026211 -1.2007426,-2.262156 -1.2007426,-3.530631 0,-1.268473 0.4203366,-2.504419 1.2007426,-3.53063 0.780459,-1.026211 1.880882,-1.790052 3.143655,-2.182053 z"
     fill="#C2CCDE"
     stroke="#C2CCDE"
     stroke-width="2.15387"
     stroke-linecap="square"
     stroke-linejoin="round"
     id="path3"
     style="fill:#ffa500;fill-opacity:1;stroke:none;stroke-opacity:1" />
</svg>
